<svg width="1359" height="132" viewBox="0 0 1359 132" fill="none" xmlns="http://www.w3.org/2000/svg">
  <path d="M0 127.479C2.43463 126.756 4.19973 126.033 5.29531 125.31C6.39089 124.466 7.12128 123.14 7.48647 121.332C7.9734 119.403 8.21686 116.389 8.21686 112.29V19.7096C8.21686 15.611 7.9734 12.6575 7.48647 10.8493C7.12128 8.92055 6.39089 7.59452 5.29531 6.87123C4.19973 6.0274 2.43463 5.24383 0 4.52054V2.71233H10.7732C14.5469 2.59178 20.39 2.10959 28.3025 1.26576C34.0239 0.421919 39.0757 0 43.4581 0C55.9964 0 66.2827 3.19452 74.3169 9.58356C82.3512 15.9726 86.3683 27.3041 86.3683 43.5781C86.3683 54.6685 84.238 63.6493 79.9774 70.5205C75.7168 77.3918 70.4215 82.274 64.0915 85.1671C57.7615 88.0603 51.3097 89.5068 44.7362 89.5068C41.9364 89.5068 39.3192 89.326 36.8846 88.9644C34.4499 88.4822 31.8936 87.9397 29.2155 87.337V112.29C29.2155 116.389 29.459 119.403 29.9459 121.332C30.5545 123.14 31.5893 124.466 33.05 125.31C34.5108 126.153 36.8846 126.877 40.1713 127.479V129.288H0V127.479ZM29.2155 83.7206C33.1109 85.1671 36.8846 85.8904 40.5365 85.8904C47.7187 85.8904 53.014 82.8767 56.4224 76.8493C59.9526 70.7014 61.7177 59.9726 61.7177 44.663C61.7177 29.474 59.8918 18.8657 56.2398 12.8384C52.7096 6.69041 47.3535 3.61643 40.1713 3.61643C36.7628 3.61643 33.1109 4.03835 29.2155 4.88219V83.7206Z" fill="#FFFEFA"/>
  <path d="M174.055 112.833C175.15 116.69 176.246 119.584 177.341 121.512C178.437 123.321 179.654 124.586 180.993 125.31C182.332 126.033 184.341 126.756 187.019 127.479V129.288H144.291V127.479C147.7 126.756 150.013 126.033 151.23 125.31C152.569 124.586 153.239 123.26 153.239 121.332C153.239 119.644 152.691 116.811 151.595 112.833L146.665 95.1123H105.581L100.468 113.014C99.2509 117.474 98.6423 120.307 98.6423 121.512C98.6423 123.321 99.2509 124.586 100.468 125.31C101.807 126.033 104.242 126.756 107.772 127.479V129.288H83.8519V127.479C86.4083 126.756 88.356 126.033 89.695 125.31C91.034 124.586 92.2514 123.321 93.3469 121.512C94.4425 119.584 95.5381 116.69 96.6337 112.833L124.023 15.189L122.015 8.13699V6.32877C126.519 6.32877 130.171 5.96712 132.97 5.24383C135.892 4.4 138.387 2.65206 140.457 0H142.283L174.055 112.833ZM126.214 22.7836L106.494 91.4959H145.57L126.214 22.7836Z" fill="#FFFEFA"/>
  <path d="M194.459 19.7096C194.459 15.611 194.215 12.6575 193.728 10.8493C193.363 8.92055 192.633 7.59452 191.537 6.87123C190.441 6.0274 188.676 5.24383 186.242 4.52054V2.71233H223.674V4.52054C221.239 5.12328 219.474 5.84657 218.379 6.69041C217.283 7.53425 216.492 8.92055 216.005 10.8493C215.64 12.6575 215.457 15.611 215.457 19.7096V89.8685C215.457 101.079 217.648 109.277 222.031 114.46C226.535 119.523 233.047 122.055 241.569 122.055C249.968 122.055 256.663 119.523 261.654 114.46C266.767 109.397 269.323 102.104 269.323 92.5808V19.7096C269.323 15.611 269.08 12.6575 268.593 10.8493C268.228 8.92055 267.497 7.59452 266.402 6.87123C265.306 6.0274 263.541 5.24383 261.106 4.52054V2.71233H281.192V4.52054C278.757 5.12328 276.992 5.84657 275.897 6.69041C274.801 7.53425 274.01 8.92055 273.523 10.8493C273.158 12.6575 272.975 15.611 272.975 19.7096V92.0384C272.975 104.696 269.932 114.521 263.845 121.512C257.759 128.504 248.933 132 237.369 132C224.952 132 214.666 128.685 206.51 122.055C198.476 115.304 194.459 104.153 194.459 88.6027V19.7096Z" fill="#FFFEFA"/>
  <path d="M371.508 84.9863L366.03 129.288H293.539V127.479C295.973 126.756 297.738 126.033 298.834 125.31C299.93 124.466 300.66 123.14 301.025 121.332C301.512 119.403 301.756 116.389 301.756 112.29V19.7096C301.756 15.611 301.512 12.6575 301.025 10.8493C300.66 8.92055 299.93 7.59452 298.834 6.87123C297.738 6.0274 295.973 5.24383 293.539 4.52054V2.71233H330.971V4.52054C328.536 5.12328 326.771 5.84657 325.676 6.69041C324.58 7.53425 323.789 8.92055 323.302 10.8493C322.937 12.6575 322.754 15.611 322.754 19.7096V125.671H339.005C344.605 125.671 348.926 124.827 351.97 123.14C355.013 121.332 357.752 117.595 360.187 111.929C362.743 106.142 365.299 97.1616 367.856 84.9863H371.508Z" fill="#FFFEFA"/>
  <path d="M477.681 129.288L443.718 18.4438L434.405 112.29C434.162 114.099 434.04 116.268 434.04 118.8C434.04 121.693 434.527 123.682 435.501 124.767C436.596 125.852 438.727 126.756 441.892 127.479V129.288H420.893V127.479C423.328 126.756 425.093 126.033 426.188 125.31C427.406 124.466 428.379 123.079 429.11 121.151C429.84 119.222 430.388 116.268 430.753 112.29L439.883 19.7096C440.126 16.3343 440.248 14.2247 440.248 13.3808C440.248 10.3671 439.639 8.31781 438.422 7.23288C437.327 6.14795 435.075 5.24383 431.666 4.52054V2.71233H462.525L489.732 86.0712L516.026 2.71233H545.972V4.52054C542.442 5.24383 540.068 6.14795 538.85 7.23288C537.755 8.31781 537.207 10.3671 537.207 13.3808C537.207 14.1041 537.329 16.1534 537.572 19.5288L547.432 112.471C547.798 116.449 548.346 119.403 549.076 121.332C549.806 123.14 550.719 124.466 551.815 125.31C553.032 126.033 554.919 126.756 557.475 127.479V129.288H517.487V127.479C520.652 126.756 522.721 125.912 523.695 124.948C524.791 123.863 525.338 121.874 525.338 118.981C525.338 117.293 525.156 115.123 524.791 112.471L515.113 18.4438L482.428 129.288H477.681Z" fill="#FFFEFA"/>
  <path d="M566.032 84.9863C566.032 75.1014 567.919 66.4822 571.692 59.1288C575.466 51.7753 580.518 46.1096 586.848 42.1315C593.3 38.1534 600.421 36.1644 608.212 36.1644C611.62 36.1644 615.637 36.6466 620.263 37.611C620.993 37.7315 622.393 37.9726 624.463 38.3343C626.654 38.6959 628.906 38.8767 631.219 38.8767L636.697 70.5205H633.045C629.515 58.4658 625.924 50.3288 622.272 46.1096C618.62 41.8904 614.481 39.7808 609.855 39.7808C597.073 39.7808 590.682 52.7397 590.682 78.6575C590.682 90.9534 592.447 101.441 595.978 110.121C599.63 118.679 605.655 122.959 614.055 122.959C618.802 122.959 623.306 120.97 627.567 116.992C631.949 113.014 635.723 106.142 638.888 96.3781L642.357 97.2822C638.462 109.819 633.532 118.74 627.567 124.044C621.602 129.348 614.359 132 605.838 132C593.543 132 583.805 127.841 576.622 119.523C569.562 111.205 566.032 99.6932 566.032 84.9863Z" fill="#FFFEFA"/>
  <path d="M656.011 65.6384C656.011 50.9315 658.324 38.6959 662.949 28.9315C667.575 19.0466 673.844 11.7534 681.757 7.05205C689.791 2.35068 698.982 0 709.329 0C713.955 0 719.067 0.482193 724.667 1.44658C728.684 2.29041 732.336 2.71233 735.623 2.71233L740.918 47.0137H737.266C734.953 35.3205 732.519 26.3397 729.962 20.0712C727.406 13.8027 724.606 9.52329 721.563 7.23288C718.52 4.82192 714.868 3.61643 710.607 3.61643C701.599 3.61643 694.356 8.73973 688.878 18.9863C683.4 29.1123 680.661 44.1808 680.661 64.1918C680.661 76.7288 682.061 87.337 684.861 96.0164C687.661 104.696 691.374 111.205 695.999 115.545C700.747 119.885 705.92 122.055 711.52 122.055C716.633 122.055 721.076 120.97 724.85 118.8C728.623 116.51 731.971 112.471 734.892 106.685C737.936 100.899 740.492 92.8219 742.562 82.4548L746.031 83.3589C742.622 101.2 737.571 113.797 730.875 121.151C724.18 128.384 715.842 132 705.86 132C696.608 132 688.209 129.529 680.661 124.586C673.114 119.644 667.088 112.17 662.584 102.164C658.202 92.1589 656.011 79.9836 656.011 65.6384Z" fill="#FFFEFA"/>
  <path d="M838.294 112.833C839.389 116.69 840.485 119.584 841.58 121.512C842.676 123.321 843.893 124.586 845.232 125.31C846.571 126.033 848.58 126.756 851.258 127.479V129.288H808.53V127.479C811.939 126.756 814.252 126.033 815.469 125.31C816.808 124.586 817.478 123.26 817.478 121.332C817.478 119.644 816.93 116.811 815.834 112.833L810.904 95.1123H769.82L764.707 113.014C763.49 117.474 762.881 120.307 762.881 121.512C762.881 123.321 763.49 124.586 764.707 125.31C766.046 126.033 768.481 126.756 772.011 127.479V129.288H748.091V127.479C750.647 126.756 752.595 126.033 753.934 125.31C755.273 124.586 756.49 123.321 757.586 121.512C758.681 119.584 759.777 116.69 760.873 112.833L788.262 15.189L786.254 8.13699V6.32877C790.758 6.32877 794.41 5.96712 797.209 5.24383C800.131 4.4 802.626 2.65206 804.696 0H806.522L838.294 112.833ZM790.453 22.7836L770.733 91.4959H809.809L790.453 22.7836Z" fill="#FFFEFA"/>
  <path d="M958.121 111.929C957.756 116.751 957.148 120.548 956.296 123.321C955.443 126.093 953.861 128.203 951.548 129.649C949.357 131.216 946.131 132 941.87 132C937.001 132 933.106 130.734 930.184 128.203C927.263 125.671 924.95 121.874 923.245 116.811C921.663 111.748 920.385 104.877 919.411 96.1973C918.194 85.9507 917.098 78.537 916.124 73.9562C915.272 69.2548 913.994 65.8795 912.29 63.8301C910.707 61.6603 908.394 60.5753 905.351 60.5753C901.456 60.5753 896.708 60.2137 891.108 59.4904V112.29C891.108 116.389 891.291 119.403 891.656 121.332C892.143 123.14 892.934 124.466 894.03 125.31C895.126 126.153 896.891 126.877 899.325 127.479V129.288H861.893V127.479C864.328 126.756 866.093 126.033 867.188 125.31C868.284 124.466 869.014 123.14 869.379 121.332C869.866 119.403 870.11 116.389 870.11 112.29V19.7096C870.11 15.611 869.866 12.6575 869.379 10.8493C869.014 8.92055 868.284 7.59452 867.188 6.87123C866.093 6.0274 864.328 5.24383 861.893 4.52054V2.71233H872.666C878.509 2.59178 884.9 2.04931 891.839 1.08493C898.656 0.361642 903.647 0 906.812 0C916.915 0 925.376 2.41096 932.193 7.23288C939.131 12.0548 942.601 19.5288 942.601 29.6548C942.601 37.7315 940.105 44.2411 935.114 49.1836C930.245 54.126 924.098 57.5014 916.672 59.3096C921.541 60.274 925.497 61.9014 928.541 64.1918C931.584 66.4822 934.079 69.9781 936.027 74.6795C937.975 79.3808 939.375 85.7699 940.227 93.8466L940.775 99.452C941.749 107.529 942.479 113.195 942.966 116.449C943.453 119.704 944.122 122.236 944.974 124.044C945.827 125.731 947.044 126.575 948.626 126.575C950.209 126.575 951.426 125.49 952.278 123.321C953.252 121.03 953.983 117.052 954.469 111.386L958.121 111.929ZM902.977 56.9589C913.568 56.9589 918.863 47.9178 918.863 29.8356C918.863 12.3562 913.446 3.61643 902.612 3.61643C899.569 3.61643 895.734 4.03835 891.108 4.88219V55.6932C895.369 56.537 899.325 56.9589 902.977 56.9589Z" fill="#FFFEFA"/>
  <path d="M1051.89 47.0137H1048.24C1045.69 34.9589 1043.19 26.0384 1040.76 20.2521C1038.44 14.4658 1035.89 10.7288 1033.09 9.0411C1030.41 7.23288 1026.76 6.32877 1022.13 6.32877H1015.56V112.29C1015.56 116.389 1015.74 119.403 1016.11 121.332C1016.59 123.14 1017.38 124.466 1018.48 125.31C1019.58 126.153 1021.34 126.877 1023.78 127.479V129.288H986.343V127.479C988.777 126.877 990.542 126.153 991.638 125.31C992.734 124.466 993.464 123.14 993.829 121.332C994.316 119.403 994.56 116.389 994.56 112.29V6.32877H987.986C983.36 6.32877 979.647 7.23288 976.848 9.0411C974.169 10.7288 971.613 14.4658 969.179 20.2521C966.866 26.0384 964.431 34.9589 961.875 47.0137H958.223L963.701 2.71233H1046.6L1051.89 47.0137Z" fill="#FFFEFA"/>
  <path d="M1160.61 4.52054C1158.18 5.12328 1156.41 5.84657 1155.32 6.69041C1154.22 7.53425 1153.43 8.92055 1152.94 10.8493C1152.58 12.6575 1152.39 15.611 1152.39 19.7096V129.288H1144.73L1078.44 17.3589L1075.52 12.8384V112.29C1075.52 116.389 1075.7 119.403 1076.07 121.332C1076.56 123.14 1077.35 124.466 1078.44 125.31C1079.54 126.153 1081.3 126.877 1083.74 127.479V129.288H1063.65V127.479C1066.09 126.756 1067.85 126.033 1068.95 125.31C1070.04 124.466 1070.77 123.14 1071.14 121.332C1071.63 119.403 1071.87 116.389 1071.87 112.29V8.67945C1070.77 7.71507 1069.62 6.99178 1068.4 6.50959C1067.18 5.90685 1066.15 5.48493 1065.3 5.24383C1064.57 4.88219 1063.96 4.6411 1063.47 4.52054V2.71233H1096.15L1148.74 89.326V19.7096C1148.74 15.611 1148.5 12.6575 1148.01 10.8493C1147.65 8.92055 1146.92 7.53425 1145.82 6.69041C1144.73 5.84657 1142.96 5.12328 1140.53 4.52054V2.71233H1160.61V4.52054Z" fill="#FFFEFA"/>
  <path d="M1251.63 84.9863L1246.33 129.288H1172.02V127.479C1174.45 126.756 1176.21 126.033 1177.31 125.31C1178.41 124.466 1179.14 123.14 1179.5 121.332C1179.99 119.403 1180.23 116.389 1180.23 112.29V19.7096C1180.23 15.611 1179.99 12.6575 1179.5 10.8493C1179.14 8.92055 1178.41 7.59452 1177.31 6.87123C1176.21 6.0274 1174.45 5.24383 1172.02 4.52054V2.71233H1242.86L1248.34 47.0137H1244.69C1242.38 34.8384 1240.06 25.9178 1237.75 20.2521C1235.56 14.4658 1233.06 10.7288 1230.26 9.0411C1227.46 7.23288 1223.69 6.32877 1218.94 6.32877H1201.23V61.4795H1216.93C1220.1 61.4795 1222.47 61.2384 1224.06 60.7562C1225.64 60.274 1226.73 59.2493 1227.34 57.6822C1228.07 56.1151 1228.44 53.6438 1228.44 50.2685C1228.44 49.1836 1228.32 46.5918 1228.07 42.4931H1231.72L1236.11 85.8904H1232.27C1231.42 79.1397 1230.51 74.4384 1229.53 71.7863C1228.56 69.0137 1227.16 67.2055 1225.33 66.3616C1223.51 65.5178 1220.46 65.0959 1216.2 65.0959H1201.23V125.671H1222.23C1226.85 125.671 1230.57 124.767 1233.37 122.959C1236.17 121.151 1238.72 117.353 1241.04 111.567C1243.47 105.781 1245.78 96.9205 1247.98 84.9863H1251.63Z" fill="#FFFEFA"/>
  <path d="M1359 4.52054C1356.32 5.24383 1354.25 5.96712 1352.79 6.69041C1351.33 7.4137 1349.87 8.67945 1348.41 10.4877C1347.07 12.1753 1345.61 14.8274 1344.03 18.4438L1322.12 70.1589V112.29C1322.12 116.389 1322.3 119.403 1322.66 121.332C1323.15 123.14 1323.94 124.466 1325.04 125.31C1326.13 126.153 1327.9 126.877 1330.33 127.479V129.288H1292.9V127.479C1295.33 126.756 1297.1 126.033 1298.2 125.31C1299.29 124.466 1300.02 123.14 1300.39 121.332C1300.87 119.403 1301.12 116.389 1301.12 112.29V77.0301L1272.81 18.0822C1271.11 14.5863 1269.53 11.9945 1268.07 10.3068C1266.61 8.49863 1265.15 7.29315 1263.68 6.69041C1262.22 5.96712 1260.09 5.24383 1257.29 4.52054V2.71233H1302.4V4.52054C1299.35 5.12328 1297.22 5.72603 1296 6.32877C1294.91 6.81096 1294.36 7.65479 1294.36 8.86028C1294.36 9.70411 1294.67 10.9699 1295.27 12.6575C1296 14.2247 1296.86 16.0329 1297.83 18.0822L1320.29 64.3726L1340.19 18.263C1342.26 13.5616 1343.3 10.4877 1343.3 9.0411C1343.3 7.71507 1342.69 6.81096 1341.47 6.32877C1340.38 5.72603 1338.24 5.12328 1335.08 4.52054V2.71233H1359V4.52054Z" fill="#FFFEFA"/>
</svg>
